# xmcd CD database file
#
# Track frame offsets:
#	150
#	19457
#	39314
#	55409
#	70254
#
# Disc length: 1137 seconds
#
# Revision: 16
# Processed by: cddbd v1.5.2PL0 Copyright (c) Steve Scherf et al.
# Submitted via: CDex 1.51
#
DISCID=41046f05
DTITLE=Komando Noguera - Demo 2008
DYEAR=2008
DGENRE=New Age
TTITLE0=Aire Pur
TTITLE1=Artesa Sense Segre
TTITLE2=Taidonat
TTITLE3=Jaseperke
TTITLE4=Holland Connection
EXTD=YEAR: 2008
EXTT0=
EXTT1=
EXTT2=
EXTT3=
EXTT4=
PLAYORDER=
